# xmcd
#
# Track frame offsets:
#	150
#	6242
#	24940
#	51319
#	74609
#	95180
#	122233
#	157880
#	184961
#	214739
#	234894
#	254319
#	280752
#	306211
#	326590
#
# Disc length: 4630 seconds
#
# Revision: 3
# Processed by: cddbd v1.5.2PL0 Copyright (c) Steve Scherf et al.
# Submitted via: audiograbber 1.83.01
#
DISCID=d412140f
DTITLE=Jaco Pastorius - Punk Jazz, The Jaco Pastorius Anthology [CD 1)
DYEAR=2003
DGENRE=Jazz
TTITLE0=Jaco Pastorius - The Chicken (Home Recording)
TTITLE1=Wayne Cochran´s, C.C. Riders - Amelia (Live,1972)
TTITLE2=I Can Dig It Baby - Little Beaver
TTITLE3=Batterie - Jaco Pastorius, Pat Metheny, Bruce Ditmas, Paul Bley
TTITLE4=Jaco Pastorius - Continuum
TTITLE5=Midwestern Nights Dream - Pat Metheny
TTITLE6=Foreign Fun - Trilogue
TTITLE7=Birdland - Weather Report
TTITLE8=Nativity - Airto Moreira
TTITLE9=Las Olas - Flora Purim
TTITLE10=Sunday - Michel Colombier
TTITLE11=Layas - Michel Colombier
TTITLE12=Goodbye Pork Pie Hat - Joni Mitchell
TTITLE13=The Dry Cleaner From Des Moines (Live, 1979) - Joni Mitchell
TTITLE14=Jaco Pastorius - Punk Jazz (Live, 1981)
EXTD=YEAR: 2003
EXTT0=
EXTT1=
EXTT2=
EXTT3=
EXTT4=
EXTT5=
EXTT6=
EXTT7=
EXTT8=
EXTT9=
EXTT10=
EXTT11=
EXTT12=
EXTT13=
EXTT14=
PLAYORDER=
